<svg id="eqsZVvF8Drw1" xmlns="http://www.w3.org/2000/svg" xmlns:xlink="http://www.w3.org/1999/xlink" viewBox="0 0 486.882 486.882" shape-rendering="geometricPrecision" text-rendering="geometricPrecision">
    <style>
        <![CDATA[#eqsZVvF8Drw2_to {animation: eqsZVvF8Drw2_to__to 2600ms linear infinite normal forwards}@keyframes eqsZVvF8Drw2_to__to { 0% {transform: translate(240.941002px,103.4px);animation-timing-function: cubic-bezier(0.42,0,0.58,1)} 38.461538% {transform: translate(240.941002px,105.4px)} 76.923077% {transform: translate(240.941002px,103.4px)} 100% {transform: translate(240.941002px,103.4px)}} #eqsZVvF8Drw6_to {animation: eqsZVvF8Drw6_to__to 2600ms linear infinite normal forwards}@keyframes eqsZVvF8Drw6_to__to { 0% {transform: translate(378.578995px,324.066002px)} 23.076923% {transform: translate(378.578995px,324.066002px);animation-timing-function: cubic-bezier(0.42,0,0.58,1)} 61.538462% {transform: translate(378.578995px,322.07px)} 100% {transform: translate(378.578995px,324.07px)}} #eqsZVvF8Drw10_to {animation: eqsZVvF8Drw10_to__to 2600ms linear infinite normal forwards}@keyframes eqsZVvF8Drw10_to__to { 0% {transform: translate(378.578995px,170.465996px)} 11.538462% {transform: translate(378.578995px,170.465996px);animation-timing-function: cubic-bezier(0.42,0,0.58,1)} 50% {transform: translate(378.578995px,172.47px)} 88.461538% {transform: translate(378.578995px,170.47px)} 100% {transform: translate(378.578995px,170.47px)}} #eqsZVvF8Drw14_to {animation: eqsZVvF8Drw14_to__to 2600ms linear infinite normal forwards}@keyframes eqsZVvF8Drw14_to__to { 0% {transform: translate(103.303504px,324.066002px)} 15.384615% {transform: translate(103.303504px,324.066002px);animation-timing-function: cubic-bezier(0.42,0,0.58,1)} 53.846154% {transform: translate(103.303504px,322.07px)} 92.307692% {transform: translate(103.303504px,324.07px)} 100% {transform: translate(103.303504px,324.07px)}} #eqsZVvF8Drw18_to {animation: eqsZVvF8Drw18_to__to 2600ms linear infinite normal forwards}@keyframes eqsZVvF8Drw18_to__to { 0% {transform: translate(103.303504px,170.465996px)} 3.846154% {transform: translate(103.303504px,170.465996px);animation-timing-function: cubic-bezier(0.42,0,0.58,1)} 42.307692% {transform: translate(103.303504px,172.47px)} 80.769231% {transform: translate(103.303504px,170.47px)} 100% {transform: translate(103.303504px,170.47px)}} #eqsZVvF8Drw22_to {animation: eqsZVvF8Drw22_to__to 2600ms linear infinite normal forwards}@keyframes eqsZVvF8Drw22_to__to { 0% {transform: translate(240.941002px,379.481995px)} 19.230769% {transform: translate(240.941002px,379.481995px);animation-timing-function: cubic-bezier(0.42,0,0.58,1)} 57.692308% {transform: translate(240.941002px,382.48px)} 96.153846% {transform: translate(240.941002px,379.48px)} 100% {transform: translate(240.941002px,379.48px)}} #eqsZVvF8Drw26_to {animation: eqsZVvF8Drw26_to__to 2600ms linear infinite normal forwards}@keyframes eqsZVvF8Drw26_to__to { 0% {transform: translate(240.941002px,225.882011px)} 7.692308% {transform: translate(240.941002px,225.882011px);animation-timing-function: cubic-bezier(0.42,0,0.58,1)} 46.153846% {transform: translate(240.941002px,222.88px)} 84.615385% {transform: translate(240.941002px,225.88px)} 100% {transform: translate(240.941002px,225.88px)}}]]>
    </style>
    <g id="eqsZVvF8Drw2_to" transform="translate(240.941002,103.4)">
        <g id="eqsZVvF8Drw2" transform="scale(1.01,1.01) translate(-240.941002,-102.400001)">
            <polygon id="eqsZVvF8Drw3" points="240.941,85.534 152.395,42.767 152.395,42.767 152.395,162.033 240.941,204.8 240.941,204.8" fill="rgb(246,195,88)" stroke="none" stroke-width="1" />
            <polygon id="eqsZVvF8Drw4" points="240.941,85.534 240.941,204.8 329.487,162.033 329.487,42.767" fill="rgb(220,135,68)" stroke="none" stroke-width="1" />
            <polygon id="eqsZVvF8Drw5" points="240.941,85.534 329.487,42.767 329.487,42.767 240.941,0 152.395,42.767" fill="rgb(252,212,98)" stroke="none" stroke-width="1" />
        </g>
    </g>
    <g id="eqsZVvF8Drw6_to" transform="translate(378.578995,324.066002)">
        <g id="eqsZVvF8Drw6" transform="translate(-378.578995,-324.066001)">
            <polygon id="eqsZVvF8Drw7" points="378.88,307.2 289.732,264.433 289.732,264.433 289.732,383.699 378.88,426.466 378.88,426.466" fill="rgb(246,195,88)" stroke="none" stroke-width="1" />
            <polygon id="eqsZVvF8Drw8" points="378.88,307.2 378.88,426.466 467.426,383.699 467.426,264.433" fill="rgb(220,135,68)" stroke="none" stroke-width="1" />
            <polygon id="eqsZVvF8Drw9" points="378.88,307.2 467.426,264.433 467.426,264.433 378.88,221.666 289.732,264.433" fill="rgb(252,212,98)" stroke="none" stroke-width="1" />
        </g>
    </g>
    <g id="eqsZVvF8Drw10_to" transform="translate(378.578995,170.465996)">
        <g id="eqsZVvF8Drw10" transform="translate(-378.578995,-170.465996)">
            <polygon id="eqsZVvF8Drw11" points="378.88,153.6 289.732,110.833 289.732,110.833 289.732,230.099 378.88,272.866 378.88,272.866" fill="rgb(246,195,88)" stroke="none" stroke-width="1" />
            <polygon id="eqsZVvF8Drw12" points="378.88,153.6 378.88,272.866 467.426,230.099 467.426,110.833" fill="rgb(220,135,68)" stroke="none" stroke-width="1" />
            <polygon id="eqsZVvF8Drw13" points="378.88,153.6 467.426,110.833 467.426,110.833 378.88,68.066 289.732,110.833" fill="rgb(252,212,98)" stroke="none" stroke-width="1" />
        </g>
    </g>
    <g id="eqsZVvF8Drw14_to" transform="translate(103.303504,324.066002)">
        <g id="eqsZVvF8Drw14" transform="translate(-103.303504,-324.066001)">
            <polygon id="eqsZVvF8Drw15" points="103.002,307.2 14.456,264.433 14.456,264.433 14.456,383.699 103.002,426.466 103.002,426.466" fill="rgb(246,195,88)" stroke="none" stroke-width="1" />
            <polygon id="eqsZVvF8Drw16" points="103.002,307.2 103.002,426.466 192.151,383.699 192.151,264.433" fill="rgb(220,135,68)" stroke="none" stroke-width="1" />
            <polygon id="eqsZVvF8Drw17" points="103.002,307.2 192.151,264.433 192.151,264.433 103.002,221.666 14.456,264.433" fill="rgb(252,212,98)" stroke="none" stroke-width="1" />
        </g>
    </g>
    <g id="eqsZVvF8Drw18_to" transform="translate(103.303504,170.465996)">
        <g id="eqsZVvF8Drw18" transform="translate(-103.303504,-170.465996)">
            <polygon id="eqsZVvF8Drw19" points="103.002,153.6 14.456,110.833 14.456,110.833 14.456,230.099 103.002,272.866 103.002,272.866" fill="rgb(246,195,88)" stroke="none" stroke-width="1" />
            <polygon id="eqsZVvF8Drw20" points="103.002,153.6 103.002,272.866 192.151,230.099 192.151,110.833" fill="rgb(220,135,68)" stroke="none" stroke-width="1" />
            <polygon id="eqsZVvF8Drw21" points="103.002,153.6 192.151,110.833 192.151,110.833 103.002,68.066 14.456,110.833" fill="rgb(252,212,98)" stroke="none" stroke-width="1" />
        </g>
    </g>
    <g id="eqsZVvF8Drw22_to" transform="translate(240.941002,379.481995)">
        <g id="eqsZVvF8Drw22" transform="translate(-240.941002,-379.481995)">
            <polygon id="eqsZVvF8Drw23" points="240.941,362.616 152.395,319.849 152.395,319.849 152.395,439.115 240.941,481.882 240.941,481.882" fill="rgb(246,195,88)" stroke="none" stroke-width="1" />
            <polygon id="eqsZVvF8Drw24" points="240.941,362.616 240.941,481.882 329.487,439.115 329.487,319.849" fill="rgb(220,135,68)" stroke="none" stroke-width="1" />
            <polygon id="eqsZVvF8Drw25" points="240.941,362.616 329.487,319.849 329.487,319.849 240.941,277.082 152.395,319.849" fill="rgb(252,212,98)" stroke="none" stroke-width="1" />
        </g>
    </g>
    <g id="eqsZVvF8Drw26_to" transform="translate(240.941002,225.882011)">
        <g id="eqsZVvF8Drw26" transform="translate(-240.941002,-225.882011)">
            <polygon id="eqsZVvF8Drw27" points="240.941,209.016 152.395,166.249 152.395,166.249 152.395,285.515 240.941,328.282 240.941,328.282" fill="rgb(246,195,88)" stroke="none" stroke-width="1" />
            <polygon id="eqsZVvF8Drw28" points="240.941,209.016 240.941,328.282 329.487,285.515 329.487,166.249" fill="rgb(220,135,68)" stroke="none" stroke-width="1" />
            <polygon id="eqsZVvF8Drw29" points="240.941,209.016 329.487,166.249 329.487,166.249 240.941,123.482 152.395,166.249" fill="rgb(252,212,98)" stroke="none" stroke-width="1" />
        </g>
    </g>
</svg>