<?xml version="1.0" encoding="UTF-8"?>
<svg width="100%" height="100%" viewBox="0 0 655 131" version="1.1" xmlns="http://www.w3.org/2000/svg" xmlns:xlink="http://www.w3.org/1999/xlink">
    <g stroke="none" stroke-width="1" fill="none" fill-rule="evenodd">
        <g>
            <g>
                <g>
                    <polygon id="Rectangle-Copy-3" fill-opacity="0.882189764" fill="#5477F8" points="0.181818182 33 64 65 64 131 0 98.8181818"></polygon>
                    <polygon id="Rectangle" fill="#A4C4FA" opacity="0.6" points="64 64.9393382 126 32 126 98.0606618 64 131"></polygon>
                    <polygon id="Rectangle-Copy" fill="#F5F5F5" points="33 48.9393382 95 16 95 82.0606618 33 115"></polygon>
                    <polygon id="Rectangle-Copy-2" fill-opacity="0.882189764" fill="#5477F8" points="0.181818182 33.2422018 64 0 64 65.9394495 0 99"></polygon>
                </g>
            </g>
            <path d="M176.666,35.396 L210.788,35.396 L209.566,42.258 L183.904,42.258 L180.238,62.656 L204.772,62.656 L203.644,69.518 L179.11,69.518 L175.256,91.138 L201.294,91.138 L200.072,98 L165.574,98 L176.666,35.396 Z M246.884,98 L238.988,98 L241.808,81.55 C240.993329,83.4300094 240.022006,85.3883232 238.894,87.425 C237.765994,89.4616769 236.465674,91.3259915 234.993,93.018 C233.520326,94.7100085 231.906675,96.1199944 230.152,97.248 C228.397325,98.3760056 226.48601,98.94 224.418,98.94 C222.475324,98.94 220.767674,98.5013377 219.295,97.624 C217.822326,96.7466623 216.584672,95.5873405 215.582,94.146 C214.579328,92.7046595 213.827336,91.0126764 213.326,89.07 C212.824664,87.1273236 212.574,85.0906773 212.574,82.96 C212.574,78.8866463 213.153661,74.9856853 214.313,71.257 C215.472339,67.5283147 217.179989,64.2226811 219.436,61.34 C221.692011,58.4573189 224.449317,56.1700085 227.708,54.478 C230.966683,52.7859915 234.663979,51.94 238.8,51.94 C241.620014,51.94 244.439986,52.2689967 247.26,52.927 C250.080014,53.5850033 252.461324,54.3526623 254.404,55.23 L246.884,98 Z M226.204,92.266 C227.958675,92.266 229.697658,91.404342 231.421,89.681 C233.144342,87.9576581 234.789325,85.7800132 236.356,83.148 C237.922674,80.5159868 239.37966,77.664682 240.727,74.594 C242.07434,71.523318 243.249328,68.6406801 244.252,65.946 L245.38,59.648 C243.437324,58.7706623 241.11868,58.332 238.424,58.332 C235.72932,58.332 233.301011,59.0369929 231.139,60.447 C228.976989,61.8570071 227.128341,63.6899887 225.593,65.946 C224.057659,68.2020113 222.882671,70.7869854 222.068,73.701 C221.253329,76.6150146 220.846,79.575985 220.846,82.584 C220.846,83.7746726 220.924333,84.9496609 221.081,86.109 C221.237667,87.2683391 221.503998,88.3023288 221.88,89.211 C222.256002,90.1196712 222.788663,90.8559972 223.478,91.42 C224.167337,91.9840028 225.075994,92.266 226.204,92.266 Z M290.124,85.216 C290.124,87.3466773 289.669671,89.2579915 288.761,90.95 C287.852329,92.6420085 286.630341,94.0833274 285.095,95.274 C283.559659,96.4646726 281.742344,97.3733302 279.643,98 C277.543656,98.6266698 275.334678,98.94 273.016,98.94 C270.697322,98.94 268.269013,98.6736693 265.731,98.141 C263.192987,97.6083307 261.015342,96.9346707 259.198,96.12 L260.984,89.728 C262.801342,90.6053377 264.74399,91.2946642 266.812,91.796 C268.88001,92.2973358 270.916657,92.548 272.922,92.548 C274.112673,92.548 275.256328,92.4383344 276.353,92.219 C277.449672,91.9996656 278.405329,91.6236693 279.22,91.091 C280.034671,90.5583307 280.692664,89.9003373 281.194,89.117 C281.695336,88.3336628 281.946,87.3780056 281.946,86.25 C281.946,84.4953246 281.256674,82.9756731 279.878,81.691 C278.499326,80.4063269 276.713344,79.1373396 274.52,77.884 C273.203993,77.0693293 271.903673,76.2076712 270.619,75.299 C269.334327,74.3903288 268.190672,73.3876722 267.188,72.291 C266.185328,71.1943279 265.37067,69.9880066 264.744,68.672 C264.11733,67.3559934 263.804,65.9460075 263.804,64.442 C263.804,60.3686463 265.229652,57.2666773 268.081,55.136 C270.932348,53.0053227 274.73931,51.94 279.502,51.94 C281.883345,51.94 284.123656,52.2219972 286.223,52.786 C288.322344,53.3500028 290.280658,54.1019953 292.098,55.042 L290.406,61.246 C286.708648,59.3033236 283.042685,58.332 279.408,58.332 C277.214656,58.332 275.44434,58.7079962 274.097,59.46 C272.74966,60.2120038 272.076,61.5906566 272.076,63.596 C272.076,65.1626745 272.671327,66.4943279 273.862,67.591 C275.052673,68.6876721 276.650657,69.8626604 278.656,71.116 C279.846673,71.8680038 281.11566,72.6983288 282.463,73.607 C283.81034,74.5156712 285.047994,75.5339944 286.176,76.662 C287.304006,77.7900056 288.243996,79.058993 288.996,80.469 C289.748004,81.8790071 290.124,83.4613246 290.124,85.216 Z M320.58,95.462 C317.446651,99.9740226 313.530023,104.235313 308.83,108.246 C304.129976,112.256687 299.210692,115.60932 294.072,118.304 L290.406,112.382 C293.852684,110.376657 297.28365,108.136346 300.699,105.661 C304.11435,103.185654 307.137987,100.538014 309.77,97.718 C308.641994,89.7592935 307.09101,81.941705 305.117,74.265 C303.14299,66.588295 300.840013,59.4600329 298.208,52.88 L306.386,52.88 C307.388672,55.5120132 308.359995,58.3789845 309.3,61.481 C310.240005,64.5830155 311.117329,67.7946501 311.932,71.116 C312.746671,74.4373499 313.482997,77.7899831 314.141,81.174 C314.799003,84.5580169 315.378664,87.847984 315.88,91.044 C322.460033,79.1372738 326.627325,66.4160677 328.382,52.88 L336.466,52.88 C335.901997,57.0160207 335.087339,61.0893133 334.022,65.1 C332.956661,69.1106867 331.719007,72.9489817 330.309,76.615 C328.898993,80.2810183 327.363675,83.711984 325.703,86.908 C324.042325,90.104016 322.334675,92.9553208 320.58,95.462 Z M397.472,86.72 L419.656,35.396 L428.68,35.396 L400.198,98 L391.268,98 L384.97,43.856 L360.06,98 L351.13,98 L344.55,35.396 L352.822,35.396 L357.522,86.72 L381.21,35.396 L391.08,35.396 L397.472,86.72 Z M448.89,51.94 C452.587352,51.94 455.595322,52.9269901 457.914,54.901 C460.232678,56.8750099 461.392,59.428651 461.392,62.562 C461.392,65.695349 460.467676,68.2646566 458.619,70.27 C456.770324,72.2753434 454.436014,73.8733274 451.616,75.064 C448.795986,76.2546726 445.694017,77.1319972 442.31,77.696 C438.925983,78.2600028 435.667349,78.6359991 432.534,78.824 C432.345999,79.9520056 432.252,81.1113274 432.252,82.302 C432.252,85.2473481 432.941326,87.6913236 434.32,89.634 C435.698674,91.5766764 438.142649,92.548 441.652,92.548 C443.845344,92.548 446.038656,92.2190033 448.232,91.561 C450.425344,90.9029967 452.461991,90.0413387 454.342,88.976 L455.94,94.804 C453.746656,96.0573396 451.381013,97.0599962 448.843,97.812 C446.304987,98.5640038 443.626014,98.94 440.806,98.94 C438.048653,98.94 435.63601,98.5013377 433.568,97.624 C431.49999,96.7466623 429.79234,95.5246745 428.445,93.958 C427.09766,92.3913255 426.079337,90.5583438 425.39,88.459 C424.700663,86.3596562 424.356,84.0880122 424.356,81.644 C424.356,77.8839812 424.919994,74.2180179 426.048,70.646 C427.176006,67.0739821 428.805323,63.8936806 430.936,61.105 C433.066677,58.3163194 435.651651,56.091675 438.691,54.431 C441.730349,52.770325 445.129981,51.94 448.89,51.94 Z M447.856,58.144 C445.975991,58.144 444.252674,58.5669958 442.686,59.413 C441.119325,60.2590042 439.725006,61.3556599 438.503,62.703 C437.280994,64.0503401 436.262671,65.5856581 435.448,67.309 C434.633329,69.0323419 434.038002,70.7399915 433.662,72.432 C435.855344,72.369333 438.126988,72.1656684 440.477,71.821 C442.827012,71.4763316 444.973324,70.9436703 446.916,70.223 C448.858676,69.5023297 450.45666,68.5623391 451.71,67.403 C452.96334,66.2436609 453.59,64.7866754 453.59,63.032 C453.59,61.5906595 453.073005,60.4156712 452.039,59.507 C451.004995,58.5983288 449.610675,58.144 447.856,58.144 Z M502.376,34.268 C505.321348,34.268 508.235319,34.5656637 511.118,35.161 C514.000681,35.7563363 516.569989,36.5866613 518.826,37.652 L517.228,44.138 C514.971989,43.1979953 512.622012,42.4616693 510.178,41.929 C507.733988,41.3963307 505.227346,41.13 502.658,41.13 C498.396645,41.13 494.621016,41.8819925 491.331,43.386 C488.040984,44.8900075 485.268011,46.9579868 483.012,49.59 C480.755989,52.2220132 479.048339,55.3553152 477.889,58.99 C476.729661,62.6246848 476.15,66.6039784 476.15,70.928 C476.15,74.124016 476.588662,77.0223203 477.466,79.623 C478.343338,82.2236797 479.659325,84.4639906 481.414,86.344 C483.168675,88.2240094 485.39332,89.6809948 488.088,90.715 C490.78268,91.7490052 493.915982,92.266 497.488,92.266 C499.744011,92.266 502.015655,92.0936684 504.303,91.749 C506.590345,91.4043316 508.799323,90.8560038 510.93,90.104 L511.776,96.496 C509.519989,97.3733377 507.076013,98.0313311 504.444,98.47 C501.811987,98.9086689 499.086014,99.128 496.266,99.128 C491.816644,99.128 487.821684,98.4073405 484.281,96.966 C480.740316,95.5246595 477.748012,93.5506792 475.304,91.044 C472.859988,88.5373208 470.980007,85.5920169 469.664,82.208 C468.347993,78.8239831 467.69,75.1893528 467.69,71.304 C467.69,66.1653076 468.441992,61.3556891 469.946,56.875 C471.450008,52.3943109 473.658985,48.4776834 476.573,45.125 C479.487015,41.7723166 483.105978,39.1246764 487.43,37.182 C491.754022,35.2393236 496.735972,34.268 502.376,34.268 Z M521.176,98 L532.832,31.636 L541.104,31.636 L535.558,63.408 C536.435338,61.9039925 537.390995,60.4626736 538.425,59.084 C539.459005,57.7053264 540.633993,56.4833387 541.95,55.418 C543.266007,54.3526613 544.722992,53.5066698 546.321,52.88 C547.919008,52.2533302 549.689324,51.94 551.632,51.94 C553.574676,51.94 555.282326,52.3316628 556.755,53.115 C558.227674,53.8983372 559.465328,54.9949929 560.468,56.405 C561.470672,57.8150071 562.222664,59.4756571 562.724,61.387 C563.225336,63.2983429 563.476,65.4133217 563.476,67.732 C563.476,68.6720047 563.429,69.6903278 563.335,70.787 C563.241,71.8836721 563.100001,72.9646613 562.912,74.03 L558.682,98 L550.41,98 L554.546,74.594 C554.922002,72.4633227 555.11,70.3640103 555.11,68.296 C555.11,65.5386529 554.655671,63.2356759 553.747,61.387 C552.838329,59.5383241 551.256011,58.614 549,58.614 C547.495992,58.614 546.039007,59.0213293 544.629,59.836 C543.218993,60.6506707 541.871673,61.7473264 540.587,63.126 C539.302327,64.5046736 538.096006,66.1026576 536.968,67.92 C535.839994,69.7373424 534.774672,71.6173236 533.772,73.56 L529.448,98 L521.176,98 Z M606.998,98 L599.102,98 L601.922,81.55 C601.107329,83.4300094 600.136006,85.3883232 599.008,87.425 C597.879994,89.4616769 596.579674,91.3259915 595.107,93.018 C593.634326,94.7100085 592.020675,96.1199944 590.266,97.248 C588.511325,98.3760056 586.60001,98.94 584.532,98.94 C582.589324,98.94 580.881674,98.5013377 579.409,97.624 C577.936326,96.7466623 576.698672,95.5873405 575.696,94.146 C574.693328,92.7046595 573.941336,91.0126764 573.44,89.07 C572.938664,87.1273236 572.688,85.0906773 572.688,82.96 C572.688,78.8866463 573.267661,74.9856853 574.427,71.257 C575.586339,67.5283147 577.293989,64.2226811 579.55,61.34 C581.806011,58.4573189 584.563317,56.1700085 587.822,54.478 C591.080683,52.7859915 594.777979,51.94 598.914,51.94 C601.734014,51.94 604.553986,52.2689967 607.374,52.927 C610.194014,53.5850033 612.575324,54.3526623 614.518,55.23 L606.998,98 Z M586.318,92.266 C588.072675,92.266 589.811658,91.404342 591.535,89.681 C593.258342,87.9576581 594.903325,85.7800132 596.47,83.148 C598.036675,80.5159868 599.49366,77.664682 600.841,74.594 C602.18834,71.523318 603.363328,68.6406801 604.366,65.946 L605.494,59.648 C603.551324,58.7706623 601.23268,58.332 598.538,58.332 C595.84332,58.332 593.415011,59.0369929 591.253,60.447 C589.090989,61.8570071 587.242341,63.6899887 585.707,65.946 C584.171659,68.2020113 582.996671,70.7869854 582.182,73.701 C581.367329,76.6150146 580.96,79.575985 580.96,82.584 C580.96,83.7746726 581.038333,84.9496609 581.195,86.109 C581.351667,87.2683391 581.617998,88.3023288 581.994,89.211 C582.370002,90.1196712 582.902663,90.8559972 583.592,91.42 C584.281337,91.9840028 585.189994,92.266 586.318,92.266 Z M623.072,52.88 L631.344,52.88 L633.412,41.036 L641.684,41.036 L639.616,52.88 L654.186,52.88 L652.964,59.554 L638.394,59.554 L634.07,84.088 C633.881999,85.2160056 633.788,86.1559962 633.788,86.908 C633.788,88.7253424 634.195329,90.0883288 635.01,90.997 C635.824671,91.9056712 637.171991,92.36 639.052,92.36 C640.618675,92.36 642.169659,92.1876684 643.705,91.843 C645.240341,91.4983316 646.697326,91.0440028 648.076,90.48 L648.64,96.496 C647.261326,97.1853368 645.58501,97.7649976 643.611,98.235 C641.63699,98.7050024 639.647343,98.94 637.642,98.94 C633.69398,98.94 630.68601,97.9216768 628.618,95.885 C626.54999,93.8483231 625.516,91.0126848 625.516,87.378 C625.516,86.6886632 625.547333,86.0150033 625.61,85.357 C625.672667,84.6989967 625.766666,84.0880028 625.892,83.524 L630.122,59.554 L621.85,59.554 L623.072,52.88 Z" id="EasyWeChat" fill="#424242"></path>
        </g>
    </g>
</svg>